<svg width="12" height="18" viewBox="0 0 12 18" fill="none" xmlns="http://www.w3.org/2000/svg">
<path fill-rule="evenodd" clip-rule="evenodd" d="M2 2V4.06882C2.01203 4.09231 2.03028 4.12559 2.05714 4.16959C2.15722 4.33354 2.32692 4.56675 2.58429 4.87727C3.0958 5.49442 3.88246 6.33226 4.95909 7.39891C5.17405 7.61009 5.29926 7.89781 5.30474 8.20202L5.33192 9.70928C5.33796 10.044 5.19891 10.3569 4.96375 10.5763C3.88029 11.587 3.09277 12.3889 2.58309 12.99C2.32706 13.2919 2.16053 13.5206 2.0633 13.6831C2.03054 13.7379 2.01105 13.7763 2 13.8001V15.9995L10 16V13.8001C9.98895 13.7763 9.96946 13.7379 9.9367 13.6831C9.83947 13.5206 9.67294 13.2919 9.41691 12.99C8.90723 12.3889 8.11971 11.587 7.03625 10.5763C6.80103 10.3569 6.66196 10.0441 6.66808 9.70928L6.69526 8.20202C6.70074 7.89783 6.82593 7.61014 7.04086 7.39896L7.03874 7.40106L7.74252 8.11147L7.04672 7.39324C7.04476 7.39514 7.04281 7.39705 7.04086 7.39896C8.11752 6.33229 8.90419 5.49443 9.41571 4.87727C9.67308 4.56675 9.84278 4.33354 9.94286 4.16959C9.96972 4.12559 9.98796 4.09231 10 4.06882V4.18128C10 4.08246 10.0207 4.0247 10.0207 4.0247C10.0207 4.0247 10.0154 4.03871 10 4.06882V2H10.5C10.2627 2 10 1.80527 10 1.48V2H2ZM0 1.48C0 0.624537 0.71044 0 1.5 0H10.5C11.2896 0 12 0.624537 12 1.48V4.18128C12 4.60141 11.7905 4.98145 11.65 5.21162C11.4786 5.49238 11.2411 5.80904 10.9556 6.15355C10.4247 6.79398 9.66522 7.60518 8.68875 8.58071L8.67451 9.37089C9.6468 10.2884 10.4074 11.0656 10.9423 11.6964C11.2332 12.0395 11.4769 12.3619 11.6531 12.6565C11.808 12.9155 12 13.2949 12 13.7148V16.52C12 17.3755 11.2896 18 10.5 18H1.5C0.71044 18 0 17.3755 0 16.52V13.7148C0 13.2949 0.19198 12.9155 0.346896 12.6565C0.523134 12.3619 0.766809 12.0395 1.05771 11.6964C1.59264 11.0656 2.3532 10.2884 3.32549 9.37089L3.31125 8.58071C2.33478 7.60518 1.57526 6.79398 1.04445 6.15355C0.758909 5.80904 0.521425 5.49238 0.350046 5.21162C0.209547 4.98145 0 4.60141 0 4.18128V1.48Z" fill="white"/>
</svg>

